<mxfile host="app.diagrams.net" modified="2021-02-14T11:50:56.158Z" agent="5.0 (Windows NT 10.0; Win64; x64) AppleWebKit/537.36 (KHTML, like Gecko) Chrome/88.0.4324.150 Safari/537.36" etag="Gd0pkpHaIz7QEilQ8Tgx" version="14.3.1" type="github" pages="2">
  <diagram id="U_Di6kSQMvSUaMhFNaCB" name="Current Stage">
    <mxGraphModel dx="1422" dy="794" grid="1" gridSize="10" guides="1" tooltips="1" connect="1" arrows="1" fold="1" page="1" pageScale="1" pageWidth="827" pageHeight="1169" math="0" shadow="0">
      <root>
        <mxCell id="0" />
        <mxCell id="1" parent="0" />
        <mxCell id="FJQFGg7HVBiQQnD5ctv0-11" style="edgeStyle=orthogonalEdgeStyle;rounded=0;orthogonalLoop=1;jettySize=auto;html=1;entryX=0.5;entryY=0;entryDx=0;entryDy=0;" edge="1" parent="1" source="FJQFGg7HVBiQQnD5ctv0-3" target="FJQFGg7HVBiQQnD5ctv0-7">
          <mxGeometry relative="1" as="geometry" />
        </mxCell>
        <mxCell id="FJQFGg7HVBiQQnD5ctv0-12" value="Uses&lt;br&gt;" style="edgeLabel;html=1;align=center;verticalAlign=middle;resizable=0;points=[];" vertex="1" connectable="0" parent="FJQFGg7HVBiQQnD5ctv0-11">
          <mxGeometry x="-0.0781" y="-3" relative="1" as="geometry">
            <mxPoint as="offset" />
          </mxGeometry>
        </mxCell>
        <mxCell id="FJQFGg7HVBiQQnD5ctv0-13" style="edgeStyle=orthogonalEdgeStyle;rounded=0;orthogonalLoop=1;jettySize=auto;html=1;entryX=0.564;entryY=-0.04;entryDx=0;entryDy=0;entryPerimeter=0;" edge="1" parent="1" source="FJQFGg7HVBiQQnD5ctv0-3" target="FJQFGg7HVBiQQnD5ctv0-8">
          <mxGeometry relative="1" as="geometry" />
        </mxCell>
        <mxCell id="FJQFGg7HVBiQQnD5ctv0-14" value="Uses" style="edgeLabel;html=1;align=center;verticalAlign=middle;resizable=0;points=[];" vertex="1" connectable="0" parent="FJQFGg7HVBiQQnD5ctv0-13">
          <mxGeometry x="-0.007" relative="1" as="geometry">
            <mxPoint as="offset" />
          </mxGeometry>
        </mxCell>
        <mxCell id="FJQFGg7HVBiQQnD5ctv0-39" value="Uses" style="edgeStyle=orthogonalEdgeStyle;rounded=0;orthogonalLoop=1;jettySize=auto;html=1;entryX=0.345;entryY=-0.04;entryDx=0;entryDy=0;entryPerimeter=0;" edge="1" parent="1" source="FJQFGg7HVBiQQnD5ctv0-3" target="FJQFGg7HVBiQQnD5ctv0-15">
          <mxGeometry relative="1" as="geometry">
            <Array as="points">
              <mxPoint x="400" y="70" />
              <mxPoint x="88" y="70" />
            </Array>
          </mxGeometry>
        </mxCell>
        <mxCell id="FJQFGg7HVBiQQnD5ctv0-3" value="Calculator&#xa;" style="swimlane;fontStyle=1;align=center;verticalAlign=top;childLayout=stackLayout;horizontal=1;startSize=26;horizontalStack=0;resizeParent=1;resizeParentMax=0;resizeLast=0;collapsible=1;marginBottom=0;" vertex="1" parent="1">
          <mxGeometry x="320" y="80" width="160" height="34" as="geometry" />
        </mxCell>
        <mxCell id="FJQFGg7HVBiQQnD5ctv0-5" value="" style="line;strokeWidth=1;fillColor=none;align=left;verticalAlign=middle;spacingTop=-1;spacingLeft=3;spacingRight=3;rotatable=0;labelPosition=right;points=[];portConstraint=eastwest;" vertex="1" parent="FJQFGg7HVBiQQnD5ctv0-3">
          <mxGeometry y="26" width="160" height="8" as="geometry" />
        </mxCell>
        <mxCell id="FJQFGg7HVBiQQnD5ctv0-7" value="«interface»&lt;br&gt;&lt;b&gt;RpnChecking&lt;/b&gt;" style="html=1;" vertex="1" parent="1">
          <mxGeometry x="190" y="150" width="110" height="50" as="geometry" />
        </mxCell>
        <mxCell id="FJQFGg7HVBiQQnD5ctv0-8" value="«interface»&lt;br&gt;&lt;b&gt;RPNExecuting&lt;/b&gt;" style="html=1;" vertex="1" parent="1">
          <mxGeometry x="510" y="150" width="110" height="50" as="geometry" />
        </mxCell>
        <mxCell id="FJQFGg7HVBiQQnD5ctv0-52" value="Uses" style="edgeStyle=orthogonalEdgeStyle;rounded=0;orthogonalLoop=1;jettySize=auto;html=1;" edge="1" parent="1" source="FJQFGg7HVBiQQnD5ctv0-15" target="FJQFGg7HVBiQQnD5ctv0-44">
          <mxGeometry relative="1" as="geometry">
            <Array as="points">
              <mxPoint x="110" y="431" />
              <mxPoint x="90" y="431" />
            </Array>
          </mxGeometry>
        </mxCell>
        <mxCell id="FJQFGg7HVBiQQnD5ctv0-53" value="Uses" style="edgeStyle=orthogonalEdgeStyle;rounded=0;orthogonalLoop=1;jettySize=auto;html=1;entryX=0.75;entryY=0;entryDx=0;entryDy=0;" edge="1" parent="1" source="FJQFGg7HVBiQQnD5ctv0-15" target="FJQFGg7HVBiQQnD5ctv0-48">
          <mxGeometry relative="1" as="geometry">
            <Array as="points">
              <mxPoint x="140" y="475" />
              <mxPoint x="130" y="475" />
            </Array>
          </mxGeometry>
        </mxCell>
        <mxCell id="FJQFGg7HVBiQQnD5ctv0-15" value="StrategiesUtil" style="html=1;" vertex="1" parent="1">
          <mxGeometry x="110" y="260" width="110" height="50" as="geometry" />
        </mxCell>
        <mxCell id="FJQFGg7HVBiQQnD5ctv0-36" value="Implements" style="edgeStyle=orthogonalEdgeStyle;rounded=0;orthogonalLoop=1;jettySize=auto;html=1;entryX=0.5;entryY=1;entryDx=0;entryDy=0;" edge="1" parent="1" source="FJQFGg7HVBiQQnD5ctv0-16" target="FJQFGg7HVBiQQnD5ctv0-20">
          <mxGeometry relative="1" as="geometry" />
        </mxCell>
        <mxCell id="FJQFGg7HVBiQQnD5ctv0-16" value="CalculatorEngine" style="swimlane;fontStyle=1;align=center;verticalAlign=top;childLayout=stackLayout;horizontal=1;startSize=26;horizontalStack=0;resizeParent=1;resizeParentMax=0;resizeLast=0;collapsible=1;marginBottom=0;" vertex="1" parent="1">
          <mxGeometry x="305" y="430" width="160" height="86" as="geometry" />
        </mxCell>
        <mxCell id="FJQFGg7HVBiQQnD5ctv0-17" value="+ field: type" style="text;strokeColor=none;fillColor=none;align=left;verticalAlign=top;spacingLeft=4;spacingRight=4;overflow=hidden;rotatable=0;points=[[0,0.5],[1,0.5]];portConstraint=eastwest;" vertex="1" parent="FJQFGg7HVBiQQnD5ctv0-16">
          <mxGeometry y="26" width="160" height="26" as="geometry" />
        </mxCell>
        <mxCell id="FJQFGg7HVBiQQnD5ctv0-18" value="" style="line;strokeWidth=1;fillColor=none;align=left;verticalAlign=middle;spacingTop=-1;spacingLeft=3;spacingRight=3;rotatable=0;labelPosition=right;points=[];portConstraint=eastwest;" vertex="1" parent="FJQFGg7HVBiQQnD5ctv0-16">
          <mxGeometry y="52" width="160" height="8" as="geometry" />
        </mxCell>
        <mxCell id="FJQFGg7HVBiQQnD5ctv0-19" value="+ method(type): type" style="text;strokeColor=none;fillColor=none;align=left;verticalAlign=top;spacingLeft=4;spacingRight=4;overflow=hidden;rotatable=0;points=[[0,0.5],[1,0.5]];portConstraint=eastwest;" vertex="1" parent="FJQFGg7HVBiQQnD5ctv0-16">
          <mxGeometry y="60" width="160" height="26" as="geometry" />
        </mxCell>
        <mxCell id="FJQFGg7HVBiQQnD5ctv0-21" style="edgeStyle=orthogonalEdgeStyle;rounded=0;orthogonalLoop=1;jettySize=auto;html=1;" edge="1" parent="1" source="FJQFGg7HVBiQQnD5ctv0-20" target="FJQFGg7HVBiQQnD5ctv0-7">
          <mxGeometry relative="1" as="geometry" />
        </mxCell>
        <mxCell id="FJQFGg7HVBiQQnD5ctv0-22" value="Extends" style="edgeLabel;html=1;align=center;verticalAlign=middle;resizable=0;points=[];" vertex="1" connectable="0" parent="FJQFGg7HVBiQQnD5ctv0-21">
          <mxGeometry x="0.3444" y="-3" relative="1" as="geometry">
            <mxPoint as="offset" />
          </mxGeometry>
        </mxCell>
        <mxCell id="FJQFGg7HVBiQQnD5ctv0-23" style="edgeStyle=orthogonalEdgeStyle;rounded=0;orthogonalLoop=1;jettySize=auto;html=1;entryX=0.5;entryY=1;entryDx=0;entryDy=0;" edge="1" parent="1" source="FJQFGg7HVBiQQnD5ctv0-20" target="FJQFGg7HVBiQQnD5ctv0-8">
          <mxGeometry relative="1" as="geometry" />
        </mxCell>
        <mxCell id="FJQFGg7HVBiQQnD5ctv0-24" value="Extends" style="edgeLabel;html=1;align=center;verticalAlign=middle;resizable=0;points=[];" vertex="1" connectable="0" parent="FJQFGg7HVBiQQnD5ctv0-23">
          <mxGeometry x="0.3636" y="1" relative="1" as="geometry">
            <mxPoint as="offset" />
          </mxGeometry>
        </mxCell>
        <mxCell id="FJQFGg7HVBiQQnD5ctv0-20" value="«interface»&lt;br&gt;&lt;b&gt;CalculationEngine&lt;br&gt;&lt;/b&gt;" style="html=1;" vertex="1" parent="1">
          <mxGeometry x="330" y="270" width="110" height="50" as="geometry" />
        </mxCell>
        <mxCell id="FJQFGg7HVBiQQnD5ctv0-34" style="edgeStyle=orthogonalEdgeStyle;rounded=0;orthogonalLoop=1;jettySize=auto;html=1;entryX=1;entryY=0.5;entryDx=0;entryDy=0;" edge="1" parent="1" source="FJQFGg7HVBiQQnD5ctv0-30" target="FJQFGg7HVBiQQnD5ctv0-8">
          <mxGeometry relative="1" as="geometry">
            <Array as="points">
              <mxPoint x="690" y="175" />
            </Array>
          </mxGeometry>
        </mxCell>
        <mxCell id="FJQFGg7HVBiQQnD5ctv0-35" value="Implements&lt;br&gt;" style="edgeLabel;html=1;align=center;verticalAlign=middle;resizable=0;points=[];" vertex="1" connectable="0" parent="FJQFGg7HVBiQQnD5ctv0-34">
          <mxGeometry x="-0.0512" y="-1" relative="1" as="geometry">
            <mxPoint as="offset" />
          </mxGeometry>
        </mxCell>
        <mxCell id="FJQFGg7HVBiQQnD5ctv0-30" value="RPNExecutioner" style="swimlane;fontStyle=1;align=center;verticalAlign=top;childLayout=stackLayout;horizontal=1;startSize=26;horizontalStack=0;resizeParent=1;resizeParentMax=0;resizeLast=0;collapsible=1;marginBottom=0;" vertex="1" parent="1">
          <mxGeometry x="630" y="320" width="160" height="34" as="geometry" />
        </mxCell>
        <mxCell id="FJQFGg7HVBiQQnD5ctv0-32" value="" style="line;strokeWidth=1;fillColor=none;align=left;verticalAlign=middle;spacingTop=-1;spacingLeft=3;spacingRight=3;rotatable=0;labelPosition=right;points=[];portConstraint=eastwest;" vertex="1" parent="FJQFGg7HVBiQQnD5ctv0-30">
          <mxGeometry y="26" width="160" height="8" as="geometry" />
        </mxCell>
        <mxCell id="FJQFGg7HVBiQQnD5ctv0-37" style="edgeStyle=orthogonalEdgeStyle;rounded=0;orthogonalLoop=1;jettySize=auto;html=1;entryX=0.35;entryY=1;entryDx=0;entryDy=0;entryPerimeter=0;" edge="1" parent="1" source="FJQFGg7HVBiQQnD5ctv0-17" target="FJQFGg7HVBiQQnD5ctv0-32">
          <mxGeometry relative="1" as="geometry" />
        </mxCell>
        <mxCell id="FJQFGg7HVBiQQnD5ctv0-38" value="Extends" style="edgeLabel;html=1;align=center;verticalAlign=middle;resizable=0;points=[];" vertex="1" connectable="0" parent="FJQFGg7HVBiQQnD5ctv0-37">
          <mxGeometry x="0.4881" y="4" relative="1" as="geometry">
            <mxPoint as="offset" />
          </mxGeometry>
        </mxCell>
        <mxCell id="FJQFGg7HVBiQQnD5ctv0-42" style="edgeStyle=orthogonalEdgeStyle;rounded=0;orthogonalLoop=1;jettySize=auto;html=1;entryX=0.436;entryY=1;entryDx=0;entryDy=0;entryPerimeter=0;" edge="1" parent="1" source="FJQFGg7HVBiQQnD5ctv0-18" target="FJQFGg7HVBiQQnD5ctv0-15">
          <mxGeometry relative="1" as="geometry" />
        </mxCell>
        <mxCell id="FJQFGg7HVBiQQnD5ctv0-43" value="Uses" style="edgeLabel;html=1;align=center;verticalAlign=middle;resizable=0;points=[];" vertex="1" connectable="0" parent="FJQFGg7HVBiQQnD5ctv0-42">
          <mxGeometry x="-0.2805" y="4" relative="1" as="geometry">
            <mxPoint as="offset" />
          </mxGeometry>
        </mxCell>
        <mxCell id="FJQFGg7HVBiQQnD5ctv0-44" value="AbstractFunctionStrategy&#xa;" style="swimlane;fontStyle=1;align=center;verticalAlign=top;childLayout=stackLayout;horizontal=1;startSize=26;horizontalStack=0;resizeParent=1;resizeParentMax=0;resizeLast=0;collapsible=1;marginBottom=0;" vertex="1" parent="1">
          <mxGeometry x="10" y="551" width="160" height="34" as="geometry" />
        </mxCell>
        <mxCell id="FJQFGg7HVBiQQnD5ctv0-46" value="" style="line;strokeWidth=1;fillColor=none;align=left;verticalAlign=middle;spacingTop=-1;spacingLeft=3;spacingRight=3;rotatable=0;labelPosition=right;points=[];portConstraint=eastwest;" vertex="1" parent="FJQFGg7HVBiQQnD5ctv0-44">
          <mxGeometry y="26" width="160" height="8" as="geometry" />
        </mxCell>
        <mxCell id="FJQFGg7HVBiQQnD5ctv0-48" value="AbstractOperatorStrategy" style="swimlane;fontStyle=1;align=center;verticalAlign=top;childLayout=stackLayout;horizontal=1;startSize=26;horizontalStack=0;resizeParent=1;resizeParentMax=0;resizeLast=0;collapsible=1;marginBottom=0;" vertex="1" parent="1">
          <mxGeometry x="10" y="640" width="160" height="34" as="geometry" />
        </mxCell>
        <mxCell id="FJQFGg7HVBiQQnD5ctv0-50" value="" style="line;strokeWidth=1;fillColor=none;align=left;verticalAlign=middle;spacingTop=-1;spacingLeft=3;spacingRight=3;rotatable=0;labelPosition=right;points=[];portConstraint=eastwest;" vertex="1" parent="FJQFGg7HVBiQQnD5ctv0-48">
          <mxGeometry y="26" width="160" height="8" as="geometry" />
        </mxCell>
      </root>
    </mxGraphModel>
  </diagram>
  <diagram id="a0rP1ED0U-YMXS3hDDce" name="To be stage">
    <mxGraphModel dx="1422" dy="794" grid="1" gridSize="10" guides="1" tooltips="1" connect="1" arrows="1" fold="1" page="1" pageScale="1" pageWidth="827" pageHeight="1169" math="0" shadow="0">
      <root>
        <mxCell id="qiOEUOyGlg2vdSCUv-Mq-0" />
        <mxCell id="qiOEUOyGlg2vdSCUv-Mq-1" parent="qiOEUOyGlg2vdSCUv-Mq-0" />
        <mxCell id="gHWRe3nLFHHZmOpGxMiy-0" style="edgeStyle=orthogonalEdgeStyle;rounded=0;orthogonalLoop=1;jettySize=auto;html=1;entryX=0.5;entryY=0;entryDx=0;entryDy=0;" edge="1" parent="qiOEUOyGlg2vdSCUv-Mq-1" source="gHWRe3nLFHHZmOpGxMiy-5" target="gHWRe3nLFHHZmOpGxMiy-7">
          <mxGeometry relative="1" as="geometry" />
        </mxCell>
        <mxCell id="gHWRe3nLFHHZmOpGxMiy-1" value="Uses&lt;br&gt;" style="edgeLabel;html=1;align=center;verticalAlign=middle;resizable=0;points=[];" vertex="1" connectable="0" parent="gHWRe3nLFHHZmOpGxMiy-0">
          <mxGeometry x="-0.0781" y="-3" relative="1" as="geometry">
            <mxPoint as="offset" />
          </mxGeometry>
        </mxCell>
        <mxCell id="gHWRe3nLFHHZmOpGxMiy-2" style="edgeStyle=orthogonalEdgeStyle;rounded=0;orthogonalLoop=1;jettySize=auto;html=1;entryX=0.564;entryY=-0.04;entryDx=0;entryDy=0;entryPerimeter=0;" edge="1" parent="qiOEUOyGlg2vdSCUv-Mq-1" source="gHWRe3nLFHHZmOpGxMiy-5" target="gHWRe3nLFHHZmOpGxMiy-8">
          <mxGeometry relative="1" as="geometry" />
        </mxCell>
        <mxCell id="gHWRe3nLFHHZmOpGxMiy-3" value="Uses" style="edgeLabel;html=1;align=center;verticalAlign=middle;resizable=0;points=[];" vertex="1" connectable="0" parent="gHWRe3nLFHHZmOpGxMiy-2">
          <mxGeometry x="-0.007" relative="1" as="geometry">
            <mxPoint as="offset" />
          </mxGeometry>
        </mxCell>
        <mxCell id="gHWRe3nLFHHZmOpGxMiy-5" value="Calculator&#xa;" style="swimlane;fontStyle=1;align=center;verticalAlign=top;childLayout=stackLayout;horizontal=1;startSize=26;horizontalStack=0;resizeParent=1;resizeParentMax=0;resizeLast=0;collapsible=1;marginBottom=0;" vertex="1" parent="qiOEUOyGlg2vdSCUv-Mq-1">
          <mxGeometry x="320" y="80" width="160" height="34" as="geometry" />
        </mxCell>
        <mxCell id="gHWRe3nLFHHZmOpGxMiy-6" value="" style="line;strokeWidth=1;fillColor=none;align=left;verticalAlign=middle;spacingTop=-1;spacingLeft=3;spacingRight=3;rotatable=0;labelPosition=right;points=[];portConstraint=eastwest;" vertex="1" parent="gHWRe3nLFHHZmOpGxMiy-5">
          <mxGeometry y="26" width="160" height="8" as="geometry" />
        </mxCell>
        <mxCell id="gHWRe3nLFHHZmOpGxMiy-7" value="«interface»&lt;br&gt;&lt;b&gt;RpnChecking&lt;/b&gt;" style="html=1;" vertex="1" parent="qiOEUOyGlg2vdSCUv-Mq-1">
          <mxGeometry x="190" y="150" width="110" height="50" as="geometry" />
        </mxCell>
        <mxCell id="gHWRe3nLFHHZmOpGxMiy-8" value="«interface»&lt;br&gt;&lt;b&gt;RPNExecuting&lt;/b&gt;" style="html=1;" vertex="1" parent="qiOEUOyGlg2vdSCUv-Mq-1">
          <mxGeometry x="510" y="150" width="110" height="50" as="geometry" />
        </mxCell>
        <mxCell id="gHWRe3nLFHHZmOpGxMiy-9" value="Uses" style="edgeStyle=orthogonalEdgeStyle;rounded=0;orthogonalLoop=1;jettySize=auto;html=1;" edge="1" parent="qiOEUOyGlg2vdSCUv-Mq-1" source="gHWRe3nLFHHZmOpGxMiy-11" target="gHWRe3nLFHHZmOpGxMiy-30">
          <mxGeometry relative="1" as="geometry">
            <Array as="points">
              <mxPoint x="110" y="431" />
              <mxPoint x="90" y="431" />
            </Array>
          </mxGeometry>
        </mxCell>
        <mxCell id="gHWRe3nLFHHZmOpGxMiy-10" value="Uses" style="edgeStyle=orthogonalEdgeStyle;rounded=0;orthogonalLoop=1;jettySize=auto;html=1;entryX=0.75;entryY=0;entryDx=0;entryDy=0;" edge="1" parent="qiOEUOyGlg2vdSCUv-Mq-1" source="gHWRe3nLFHHZmOpGxMiy-11" target="gHWRe3nLFHHZmOpGxMiy-32">
          <mxGeometry relative="1" as="geometry">
            <Array as="points">
              <mxPoint x="140" y="475" />
              <mxPoint x="130" y="475" />
            </Array>
          </mxGeometry>
        </mxCell>
        <mxCell id="gHWRe3nLFHHZmOpGxMiy-11" value="StrategiesUtil" style="html=1;" vertex="1" parent="qiOEUOyGlg2vdSCUv-Mq-1">
          <mxGeometry x="110" y="260" width="110" height="50" as="geometry" />
        </mxCell>
        <mxCell id="gHWRe3nLFHHZmOpGxMiy-12" value="Implements" style="edgeStyle=orthogonalEdgeStyle;rounded=0;orthogonalLoop=1;jettySize=auto;html=1;entryX=0.5;entryY=1;entryDx=0;entryDy=0;" edge="1" parent="qiOEUOyGlg2vdSCUv-Mq-1" source="gHWRe3nLFHHZmOpGxMiy-13" target="gHWRe3nLFHHZmOpGxMiy-21">
          <mxGeometry relative="1" as="geometry" />
        </mxCell>
        <mxCell id="gHWRe3nLFHHZmOpGxMiy-13" value="CalculatorEngine" style="swimlane;fontStyle=1;align=center;verticalAlign=top;childLayout=stackLayout;horizontal=1;startSize=26;horizontalStack=0;resizeParent=1;resizeParentMax=0;resizeLast=0;collapsible=1;marginBottom=0;" vertex="1" parent="qiOEUOyGlg2vdSCUv-Mq-1">
          <mxGeometry x="305" y="430" width="160" height="86" as="geometry" />
        </mxCell>
        <mxCell id="gHWRe3nLFHHZmOpGxMiy-14" value="+ field: type" style="text;strokeColor=none;fillColor=none;align=left;verticalAlign=top;spacingLeft=4;spacingRight=4;overflow=hidden;rotatable=0;points=[[0,0.5],[1,0.5]];portConstraint=eastwest;" vertex="1" parent="gHWRe3nLFHHZmOpGxMiy-13">
          <mxGeometry y="26" width="160" height="26" as="geometry" />
        </mxCell>
        <mxCell id="gHWRe3nLFHHZmOpGxMiy-15" value="" style="line;strokeWidth=1;fillColor=none;align=left;verticalAlign=middle;spacingTop=-1;spacingLeft=3;spacingRight=3;rotatable=0;labelPosition=right;points=[];portConstraint=eastwest;" vertex="1" parent="gHWRe3nLFHHZmOpGxMiy-13">
          <mxGeometry y="52" width="160" height="8" as="geometry" />
        </mxCell>
        <mxCell id="gHWRe3nLFHHZmOpGxMiy-16" value="+ method(type): type" style="text;strokeColor=none;fillColor=none;align=left;verticalAlign=top;spacingLeft=4;spacingRight=4;overflow=hidden;rotatable=0;points=[[0,0.5],[1,0.5]];portConstraint=eastwest;" vertex="1" parent="gHWRe3nLFHHZmOpGxMiy-13">
          <mxGeometry y="60" width="160" height="26" as="geometry" />
        </mxCell>
        <mxCell id="gHWRe3nLFHHZmOpGxMiy-17" style="edgeStyle=orthogonalEdgeStyle;rounded=0;orthogonalLoop=1;jettySize=auto;html=1;" edge="1" parent="qiOEUOyGlg2vdSCUv-Mq-1" source="gHWRe3nLFHHZmOpGxMiy-21" target="gHWRe3nLFHHZmOpGxMiy-7">
          <mxGeometry relative="1" as="geometry" />
        </mxCell>
        <mxCell id="gHWRe3nLFHHZmOpGxMiy-18" value="Extends" style="edgeLabel;html=1;align=center;verticalAlign=middle;resizable=0;points=[];" vertex="1" connectable="0" parent="gHWRe3nLFHHZmOpGxMiy-17">
          <mxGeometry x="0.3444" y="-3" relative="1" as="geometry">
            <mxPoint as="offset" />
          </mxGeometry>
        </mxCell>
        <mxCell id="gHWRe3nLFHHZmOpGxMiy-19" style="edgeStyle=orthogonalEdgeStyle;rounded=0;orthogonalLoop=1;jettySize=auto;html=1;entryX=0.5;entryY=1;entryDx=0;entryDy=0;" edge="1" parent="qiOEUOyGlg2vdSCUv-Mq-1" source="gHWRe3nLFHHZmOpGxMiy-21" target="gHWRe3nLFHHZmOpGxMiy-8">
          <mxGeometry relative="1" as="geometry" />
        </mxCell>
        <mxCell id="gHWRe3nLFHHZmOpGxMiy-20" value="Extends" style="edgeLabel;html=1;align=center;verticalAlign=middle;resizable=0;points=[];" vertex="1" connectable="0" parent="gHWRe3nLFHHZmOpGxMiy-19">
          <mxGeometry x="0.3636" y="1" relative="1" as="geometry">
            <mxPoint as="offset" />
          </mxGeometry>
        </mxCell>
        <mxCell id="gHWRe3nLFHHZmOpGxMiy-21" value="«interface»&lt;br&gt;&lt;b&gt;CalculationEngine&lt;br&gt;&lt;/b&gt;" style="html=1;" vertex="1" parent="qiOEUOyGlg2vdSCUv-Mq-1">
          <mxGeometry x="330" y="270" width="110" height="50" as="geometry" />
        </mxCell>
        <mxCell id="gHWRe3nLFHHZmOpGxMiy-22" style="edgeStyle=orthogonalEdgeStyle;rounded=0;orthogonalLoop=1;jettySize=auto;html=1;entryX=1;entryY=0.5;entryDx=0;entryDy=0;" edge="1" parent="qiOEUOyGlg2vdSCUv-Mq-1" source="gHWRe3nLFHHZmOpGxMiy-24" target="gHWRe3nLFHHZmOpGxMiy-8">
          <mxGeometry relative="1" as="geometry">
            <Array as="points">
              <mxPoint x="690" y="175" />
            </Array>
          </mxGeometry>
        </mxCell>
        <mxCell id="gHWRe3nLFHHZmOpGxMiy-23" value="Implements&lt;br&gt;" style="edgeLabel;html=1;align=center;verticalAlign=middle;resizable=0;points=[];" vertex="1" connectable="0" parent="gHWRe3nLFHHZmOpGxMiy-22">
          <mxGeometry x="-0.0512" y="-1" relative="1" as="geometry">
            <mxPoint as="offset" />
          </mxGeometry>
        </mxCell>
        <mxCell id="gHWRe3nLFHHZmOpGxMiy-24" value="RPNExecutioner" style="swimlane;fontStyle=1;align=center;verticalAlign=top;childLayout=stackLayout;horizontal=1;startSize=26;horizontalStack=0;resizeParent=1;resizeParentMax=0;resizeLast=0;collapsible=1;marginBottom=0;" vertex="1" parent="qiOEUOyGlg2vdSCUv-Mq-1">
          <mxGeometry x="630" y="320" width="160" height="34" as="geometry" />
        </mxCell>
        <mxCell id="gHWRe3nLFHHZmOpGxMiy-25" value="" style="line;strokeWidth=1;fillColor=none;align=left;verticalAlign=middle;spacingTop=-1;spacingLeft=3;spacingRight=3;rotatable=0;labelPosition=right;points=[];portConstraint=eastwest;" vertex="1" parent="gHWRe3nLFHHZmOpGxMiy-24">
          <mxGeometry y="26" width="160" height="8" as="geometry" />
        </mxCell>
        <mxCell id="gHWRe3nLFHHZmOpGxMiy-26" style="edgeStyle=orthogonalEdgeStyle;rounded=0;orthogonalLoop=1;jettySize=auto;html=1;entryX=0.35;entryY=1;entryDx=0;entryDy=0;entryPerimeter=0;" edge="1" parent="qiOEUOyGlg2vdSCUv-Mq-1" source="gHWRe3nLFHHZmOpGxMiy-14" target="gHWRe3nLFHHZmOpGxMiy-25">
          <mxGeometry relative="1" as="geometry" />
        </mxCell>
        <mxCell id="gHWRe3nLFHHZmOpGxMiy-27" value="Extends" style="edgeLabel;html=1;align=center;verticalAlign=middle;resizable=0;points=[];" vertex="1" connectable="0" parent="gHWRe3nLFHHZmOpGxMiy-26">
          <mxGeometry x="0.4881" y="4" relative="1" as="geometry">
            <mxPoint as="offset" />
          </mxGeometry>
        </mxCell>
        <mxCell id="gHWRe3nLFHHZmOpGxMiy-28" style="edgeStyle=orthogonalEdgeStyle;rounded=0;orthogonalLoop=1;jettySize=auto;html=1;entryX=0.436;entryY=1;entryDx=0;entryDy=0;entryPerimeter=0;" edge="1" parent="qiOEUOyGlg2vdSCUv-Mq-1" source="gHWRe3nLFHHZmOpGxMiy-15" target="gHWRe3nLFHHZmOpGxMiy-11">
          <mxGeometry relative="1" as="geometry" />
        </mxCell>
        <mxCell id="gHWRe3nLFHHZmOpGxMiy-29" value="Uses" style="edgeLabel;html=1;align=center;verticalAlign=middle;resizable=0;points=[];" vertex="1" connectable="0" parent="gHWRe3nLFHHZmOpGxMiy-28">
          <mxGeometry x="-0.2805" y="4" relative="1" as="geometry">
            <mxPoint as="offset" />
          </mxGeometry>
        </mxCell>
        <mxCell id="gHWRe3nLFHHZmOpGxMiy-30" value="AbstractFunctionStrategy&#xa;" style="swimlane;fontStyle=1;align=center;verticalAlign=top;childLayout=stackLayout;horizontal=1;startSize=26;horizontalStack=0;resizeParent=1;resizeParentMax=0;resizeLast=0;collapsible=1;marginBottom=0;" vertex="1" parent="qiOEUOyGlg2vdSCUv-Mq-1">
          <mxGeometry x="10" y="551" width="160" height="34" as="geometry" />
        </mxCell>
        <mxCell id="gHWRe3nLFHHZmOpGxMiy-31" value="" style="line;strokeWidth=1;fillColor=none;align=left;verticalAlign=middle;spacingTop=-1;spacingLeft=3;spacingRight=3;rotatable=0;labelPosition=right;points=[];portConstraint=eastwest;" vertex="1" parent="gHWRe3nLFHHZmOpGxMiy-30">
          <mxGeometry y="26" width="160" height="8" as="geometry" />
        </mxCell>
        <mxCell id="gHWRe3nLFHHZmOpGxMiy-32" value="AbstractOperatorStrategy" style="swimlane;fontStyle=1;align=center;verticalAlign=top;childLayout=stackLayout;horizontal=1;startSize=26;horizontalStack=0;resizeParent=1;resizeParentMax=0;resizeLast=0;collapsible=1;marginBottom=0;" vertex="1" parent="qiOEUOyGlg2vdSCUv-Mq-1">
          <mxGeometry x="10" y="640" width="160" height="34" as="geometry" />
        </mxCell>
        <mxCell id="gHWRe3nLFHHZmOpGxMiy-33" value="" style="line;strokeWidth=1;fillColor=none;align=left;verticalAlign=middle;spacingTop=-1;spacingLeft=3;spacingRight=3;rotatable=0;labelPosition=right;points=[];portConstraint=eastwest;" vertex="1" parent="gHWRe3nLFHHZmOpGxMiy-32">
          <mxGeometry y="26" width="160" height="8" as="geometry" />
        </mxCell>
      </root>
    </mxGraphModel>
  </diagram>
</mxfile>
